<!-- Event Icons SVG Library -->
<svg style="display: none;" xmlns="http://www.w3.org/2000/svg">
  <!-- Calendar Icon -->
  <symbol id="icon-calendar" viewBox="0 0 24 24">
    <rect x="3" y="4" width="18" height="18" rx="2" fill="none" stroke="currentColor" stroke-width="2"/>
    <path d="M16 2v4M8 2v4M3 10h18" stroke="currentColor" stroke-width="2" fill="none"/>
  </symbol>

  <!-- Clock Icon -->
  <symbol id="icon-clock" viewBox="0 0 24 24">
    <circle cx="12" cy="12" r="10" fill="none" stroke="currentColor" stroke-width="2"/>
    <path d="M12 6v6l4 2" stroke="currentColor" stroke-width="2" fill="none" stroke-linecap="round"/>
  </symbol>

  <!-- Users Icon -->
  <symbol id="icon-users" viewBox="0 0 24 24">
    <path d="M17 21v-2a4 4 0 0 0-4-4H5a4 4 0 0 0-4 4v2" stroke="currentColor" stroke-width="2" fill="none"/>
    <circle cx="9" cy="7" r="4" stroke="currentColor" stroke-width="2" fill="none"/>
    <path d="M23 21v-2a4 4 0 0 0-3-3.87" stroke="currentColor" stroke-width="2" fill="none"/>
    <path d="M16 3.13a4 4 0 0 1 0 7.75" stroke="currentColor" stroke-width="2" fill="none"/>
  </symbol>

  <!-- Location Icon -->
  <symbol id="icon-location" viewBox="0 0 24 24">
    <path d="M21 10c0 7-9 13-9 13s-9-6-9-13a9 9 0 0 1 18 0z" fill="none" stroke="currentColor" stroke-width="2"/>
    <circle cx="12" cy="10" r="3" fill="currentColor"/>
  </symbol>

  <!-- Clock Duration Icon -->
  <symbol id="icon-duration" viewBox="0 0 24 24">
    <circle cx="12" cy="12" r="10" fill="none" stroke="currentColor" stroke-width="2"/>
    <path d="M12 6v6h6" stroke="currentColor" stroke-width="2" fill="none" stroke-linecap="round"/>
  </symbol>

  <!-- Webinar Icon -->
  <symbol id="icon-webinar" viewBox="0 0 24 24">
    <rect x="2" y="3" width="20" height="14" rx="2" fill="none" stroke="currentColor" stroke-width="2"/>
    <path d="M2 17h20M7 21h10" stroke="currentColor" stroke-width="2" fill="none"/>
  </symbol>

  <!-- Seminar Icon -->
  <symbol id="icon-seminar" viewBox="0 0 24 24">
    <path d="M12 2L2 7v5c0 6 10 9 10 9s10-3 10-9V7l-10-5z" fill="none" stroke="currentColor" stroke-width="2"/>
  </symbol>

  <!-- Workshop Icon -->
  <symbol id="icon-workshop" viewBox="0 0 24 24">
    <path d="M14.7 6.3a1 1 0 0 0 0 1.4l1.6 1.6a1 1 0 0 0 1.4 0l3.77-3.77a6 6 0 0 1-7.94 7.94l-6.91 6.91a2.12 2.12 0 1 1-3-3l6.91-6.91a6 6 0 0 1 7.94-7.94l-3.76 3.76z" fill="none" stroke="currentColor" stroke-width="2"/>
  </symbol>

  <!-- Panel Discussion Icon -->
  <symbol id="icon-panel" viewBox="0 0 24 24">
    <circle cx="9" cy="9" r="2" fill="currentColor"/>
    <circle cx="20" cy="9" r="2" fill="currentColor"/>
    <circle cx="14.5" cy="15" r="2" fill="currentColor"/>
    <path d="M9 11v3.5c0 1.1.9 2 2 2h2c1.1 0 2-.9 2-2V11M20 11v3.5c0 1.1.9 2 2 2h-2c-1.1 0-2-.9-2-2V11" stroke="currentColor" stroke-width="1.5" fill="none"/>
    <path d="M9 11c0 .5.22 1 .63 1.38M20 11c0 .5-.22 1-.63 1.38" stroke="currentColor" stroke-width="1.5" fill="none"/>
  </symbol>

  <!-- Arrow Right Icon -->
  <symbol id="icon-arrow-right" viewBox="0 0 24 24">
    <path d="M5 12h14M12 5l7 7-7 7" stroke="currentColor" stroke-width="2" fill="none" stroke-linecap="round" stroke-linejoin="round"/>
  </symbol>

  <!-- Check Circle Icon -->
  <symbol id="icon-check" viewBox="0 0 24 24">
    <path d="M22 11.08V12a10 10 0 1 1-5.93-9.14" fill="none" stroke="currentColor" stroke-width="2"/>
    <path d="M22 4l-8.97 8.97" stroke="currentColor" stroke-width="2" fill="none" stroke-linecap="round"/>
  </symbol>
</svg>
